# ProBuilder 5.0.6
# https://unity3d.com/unity/features/worldbuilding/probuilder
# 30.11.2022 0:16:03

mtllib ./SphereC130.mtl
o SphereC130

g SphereC130
v 0.3942983 0.5954555 0
v 0.5203354 0.4914325 0.160622
v 0.3254164 0.6038679 0.2598919
v 0.6067628 0.35 0.309017
v 0.440839 0.4817336 0.4253254
v 0.2317627 0.5663119 0.5
v 0.6470013 0.1819243 0.4338886
v 0.5161432 0.2977278 0.5877853
v 0.6379881 0 0.5257311
v 0.5265349 0.1124354 0.6937805
v 0.375 0.2163119 0.809017
v 0.318994 0.4114497 0.6881909
v 0.1204665 0.4856463 0.7020465
v 0.1949189 0.303722 0.8626685
v 0 0.3680117 0.8506508
v 0.2049499 0.6733568 0
v 0.1218449 0.6657396 0.2628656
v 0 0.7 0
v 0 0.5954555 0.5257311
v -0.1204665 0.4856463 0.7020465
v -0.2317627 0.5663119 0.5
v -0.1218449 0.6657396 0.2628656
v -0.2049499 0.6733568 0
v -0.3254164 0.6038679 0.2598919
v -0.3942983 0.5954555 0
v 0.3254164 0.6038679 -0.2598919
v 0.1218449 0.6657396 -0.2628656
v 0.2317627 0.5663119 -0.5
v -0.1218449 0.6657396 -0.2628656
v -0.3254164 0.6038679 -0.2598919
v -0.2317627 0.5663119 -0.5
v 0 0.5954555 -0.5257311
v 0.1204665 0.4856463 -0.7020465
v -0.1204665 0.4856463 -0.7020465
v 0 0.3680117 -0.8506508
v 0.5203354 0.4914325 -0.160622
v 0.440839 0.4817336 -0.4253254
v 0.6067628 0.35 -0.309017
v 0.318994 0.4114497 -0.6881909
v 0.1949189 0.303722 -0.8626685
v 0.375 0.2163119 -0.809017
v 0.5161432 0.2977278 -0.5877853
v 0.6470013 0.1819243 -0.4338886
v 0.5265349 0.1124354 -0.6937805
v 0.6379881 0 -0.5257311
v 0.6379881 0.3680117 0
v 0.7132924 0.1840059 -0.1624599
v 0.7214538 0 -0.2732665
v 0.75 0 0
v 0.7132924 0.1840059 0.1624599
v 0.7214538 0 0.2732665
v -0.5203354 0.4914325 0.160622
v -0.440839 0.4817336 0.4253254
v -0.6067628 0.35 0.309017
v -0.318994 0.4114497 0.6881909
v -0.1949189 0.303722 0.8626685
v -0.375 0.2163119 0.809017
v -0.5161432 0.2977278 0.5877853
v -0.6470013 0.1819243 0.4338886
v -0.5265349 0.1124354 0.6937805
v -0.6379881 0 0.5257311
v 0 0.1912866 0.9619384
v 0.1971492 0.1137219 0.9510565
v 0 0 1
v 0.3942983 0 0.8506508
v 0.5265349 -0.1124354 0.6937805
v 0.375 -0.2163119 0.809017
v 0.1971492 -0.1137219 0.9510565
v 0 -0.1912866 0.9619384
v 0.1949189 -0.303722 0.8626685
v 0 -0.3680117 0.8506508
v 0.6470013 -0.1819243 0.4338886
v 0.7132924 -0.1840059 0.1624599
v 0.6067628 -0.35 0.309017
v 0.7132924 -0.1840059 -0.1624599
v 0.6470013 -0.1819243 -0.4338886
v 0.6067628 -0.35 -0.309017
v 0.6379881 -0.3680117 0
v 0.5203354 -0.4914325 0.160622
v 0.5203354 -0.4914325 -0.160622
v 0.3942983 -0.5954555 0
v 0.5265349 -0.1124354 -0.6937805
v 0.3942983 0 -0.8506508
v 0.375 -0.2163119 -0.809017
v 0.1971492 0.1137219 -0.9510565
v 0 0.1912866 -0.9619384
v 0 0 -1
v 0.1971492 -0.1137219 -0.9510565
v 0.1949189 -0.303722 -0.8626685
v 0 -0.1912866 -0.9619384
v 0 -0.3680117 -0.8506508
v -0.1949189 0.303722 -0.8626685
v -0.318994 0.4114497 -0.6881909
v -0.375 0.2163119 -0.809017
v -0.440839 0.4817336 -0.4253254
v -0.5203354 0.4914325 -0.160622
v -0.6067628 0.35 -0.309017
v -0.5161432 0.2977278 -0.5877853
v -0.5265349 0.1124354 -0.6937805
v -0.6470013 0.1819243 -0.4338886
v -0.6379881 0 -0.5257311
v -0.3942983 -0.5954555 0
v -0.5203354 -0.4914325 0.160622
v -0.3254164 -0.6038679 0.2598919
v -0.6067628 -0.35 0.309017
v -0.440839 -0.4817336 0.4253254
v -0.2317627 -0.5663119 0.5
v -0.6470013 -0.1819243 0.4338886
v -0.5161432 -0.2977278 0.5877853
v -0.5265349 -0.1124354 0.6937805
v -0.375 -0.2163119 0.809017
v -0.318994 -0.4114497 0.6881909
v -0.1204665 -0.4856463 0.7020465
v -0.1949189 -0.303722 0.8626685
v -0.2049499 -0.6733568 0
v -0.1218449 -0.6657396 0.2628656
v 0 -0.7 0
v 0 -0.5954555 0.5257311
v 0.1204665 -0.4856463 0.7020465
v 0.2317627 -0.5663119 0.5
v 0.1218449 -0.6657396 0.2628656
v 0.2049499 -0.6733568 0
v 0.3254164 -0.6038679 0.2598919
v -0.3254164 -0.6038679 -0.2598919
v -0.1218449 -0.6657396 -0.2628656
v -0.2317627 -0.5663119 -0.5
v 0.1218449 -0.6657396 -0.2628656
v 0.3254164 -0.6038679 -0.2598919
v 0.2317627 -0.5663119 -0.5
v 0 -0.5954555 -0.5257311
v -0.1204665 -0.4856463 -0.7020465
v 0.1204665 -0.4856463 -0.7020465
v -0.5203354 -0.4914325 -0.160622
v -0.440839 -0.4817336 -0.4253254
v -0.6067628 -0.35 -0.309017
v -0.318994 -0.4114497 -0.6881909
v -0.1949189 -0.303722 -0.8626685
v -0.375 -0.2163119 -0.809017
v -0.5161432 -0.2977278 -0.5877853
v -0.6470013 -0.1819243 -0.4338886
v -0.5265349 -0.1124354 -0.6937805
v -0.6379881 -0.3680117 0
v -0.7132924 -0.1840059 -0.1624599
v -0.7214538 0 -0.2732665
v -0.75 0 0
v -0.7132924 -0.1840059 0.1624599
v -0.7214538 0 0.2732665
v -0.1971492 -0.1137219 0.9510565
v -0.3942983 0 0.8506508
v -0.1971492 0.1137219 0.9510565
v 0.440839 -0.4817336 0.4253254
v 0.318994 -0.4114497 0.6881909
v 0.5161432 -0.2977278 0.5877853
v 0.318994 -0.4114497 -0.6881909
v 0.440839 -0.4817336 -0.4253254
v 0.5161432 -0.2977278 -0.5877853
v -0.3942983 0 -0.8506508
v -0.1971492 -0.1137219 -0.9510565
v -0.1971492 0.1137219 -0.9510565
v -0.7132924 0.1840059 0.1624599
v -0.7132924 0.1840059 -0.1624599
v -0.6379881 0.3680117 0

vt -0.3942983 1.512215E-08
vt -0.5203354 0.160622
vt -0.3254164 0.259892
vt -0.160622 0.4914325
vt -0.309017 0.35
vt -0.4253254 0.4817336
vt -0.440839 0.4253254
vt -0.2317627 0.5
vt -0.4338886 0.1819243
vt -0.5877853 0.2977278
vt -0.5257311 6.624863E-09
vt -0.6937805 0.1124354
vt 0.5161432 0.2977278
vt 0.5265349 0.1124354
vt 0.375 0.2163119
vt 0.318994 0.4114497
vt 0.440839 0.4817336
vt -0.318994 0.6881909
vt -0.1204665 0.7020465
vt 0.1949189 0.303722
vt 0.1204665 0.4856463
vt -3.703421E-09 0.3680117
vt -0.2049499 1.710053E-08
vt -0.1218449 0.2628656
vt 1.823298E-09 1.777715E-08
vt 1.55099E-09 0.5257311
vt -0.1204665 0.4856463
vt 0.1204665 0.7020465
vt 0.2317627 0.5
vt 0.1218449 0.2628656
vt 0.2049499 1.710053E-08
vt 0.3254164 0.259892
vt 0.3942983 1.512215E-08
vt -0.3254164 -0.2598919
vt -0.1218449 -0.2628655
vt -0.2317627 -0.5
vt 0.1218449 -0.2628655
vt 0.3254164 -0.2598919
vt 0.2317627 -0.5
vt 1.55099E-09 -0.5257311
vt -0.1204665 -0.7020465
vt 0.1204665 -0.7020465
vt -0.5203354 -0.160622
vt -0.440839 -0.4253254
vt 0.160622 0.4914325
vt 0.4253254 0.4817336
vt 0.309017 0.35
vt -0.318994 -0.6881909
vt -0.1949189 0.303722
vt -0.318994 0.4114497
vt -0.375 0.2163119
vt -0.5161432 0.2977278
vt -0.440839 0.4817336
vt 0.5877853 0.2977278
vt 0.4338886 0.1819243
vt -0.5265349 0.1124354
vt 0.6937805 0.1124354
vt 0.5257311 6.624863E-09
vt 0.1624599 0.1840059
vt 0.2732665 7.49157E-09
vt -0.1624599 0.1840059
vt -0.2732665 7.49157E-09
vt 0.5203354 0.160622
vt 0.440839 0.4253254
vt 0.318994 0.6881909
vt -0.375 0.2163119
vt -4.187926E-09 0.1912866
vt 0.1971492 0.1137219
vt -0.6937805 -0.1124354
vt 0.5265349 -0.1124354
vt 0.375 -0.2163119
vt 0.1971492 -0.1137219
vt -4.187926E-09 -0.1912865
vt 0.1949189 -0.303722
vt -3.703421E-09 -0.3680117
vt -0.4338886 -0.1819243
vt -0.1624599 -0.1840059
vt -0.309017 -0.35
vt 0.1624599 -0.1840059
vt 0.4338886 -0.1819243
vt 0.309017 -0.35
vt -0.160622 -0.4914325
vt 0.160622 -0.4914325
vt 0.5203354 -0.160622
vt 0.6937805 -0.1124354
vt -0.5265349 -0.1124354
vt -0.375 -0.2163119
vt -0.1971492 0.1137219
vt -0.1971492 -0.1137219
vt -0.1949189 -0.303722
vt 0.318994 -0.6881909
vt 0.440839 -0.4253254
vt 0.4253254 -0.4817336
vt 0.5877853 -0.2977278
vt -0.5161432 -0.2977278
vt -0.375 -0.2163119
vt -0.318994 -0.4114497
vt -0.440839 -0.4817336
vt -0.1204665 -0.4856463
vt 0.1204665 -0.4856463
vt -0.4253254 -0.4817336
vt 0.3189941 -0.4114497
vt 0.5161432 -0.2977278
vt 0.440839 -0.4817336
vt -0.5877853 -0.2977278

vn 0.500387 0.8658019 0
vn 0.6663342 0.7371902 0.1120241
vn 0.4225437 0.8883307 0.1797927
vn 0.8109593 0.5362924 0.233956
vn 0.5923689 0.7340032 0.3321721
vn 0.3117302 0.870909 0.3799233
vn 0.897364 0.2754489 0.3447692
vn 0.7265168 0.4975068 0.4739835
vn 0.9061108 -3.02484E-09 0.4230403
vn 0.793882 0.1823328 0.5800915
vn 0.5837826 0.3844553 0.7151168
vn 0.4734922 0.6809757 0.5586387
vn 0.1665924 0.7960216 0.5818905
vn 0.29405 0.5568626 0.7768131
vn 0 0.6575366 0.7534226
vn 0.2687875 0.9631995 -1.254084E-09
vn 0.144421 0.9702498 0.194314
vn 0 1 0
vn 0 0.9207113 0.3902443
vn -0.1665924 0.7960216 0.5818905
vn -0.3117302 0.870909 0.3799233
vn -0.144421 0.9702498 0.194314
vn -0.2687875 0.9631995 -2.508167E-09
vn -0.4225437 0.8883307 0.1797927
vn -0.500387 0.8658019 0
vn 0.4225437 0.8883307 -0.1797927
vn 0.144421 0.9702498 -0.194314
vn 0.3117302 0.870909 -0.3799233
vn -0.144421 0.9702498 -0.194314
vn -0.4225437 0.8883307 -0.1797927
vn -0.3117302 0.870909 -0.3799233
vn 0 0.9207113 -0.3902443
vn 0.1665924 0.7960216 -0.5818905
vn -0.1665924 0.7960216 -0.5818905
vn 0 0.6575366 -0.7534226
vn 0.6663342 0.7371902 -0.1120241
vn 0.5923689 0.7340032 -0.3321721
vn 0.8109593 0.5362924 -0.233956
vn 0.4734922 0.6809757 -0.5586387
vn 0.29405 0.5568626 -0.7768131
vn 0.5837826 0.3844553 -0.7151168
vn 0.7265168 0.4975068 -0.4739835
vn 0.897364 0.2754489 -0.3447692
vn 0.793882 0.1823328 -0.5800915
vn 0.9061109 -3.02484E-09 -0.4230403
vn 0.8417078 0.5399333 0
vn 0.9507155 0.2882717 -0.1141905
vn 0.9755948 -2.517572E-09 -0.2195786
vn 1 2.518254E-09 0
vn 0.9507155 0.2882718 0.1141905
vn 0.9755948 2.517572E-09 0.2195786
vn -0.6663342 0.7371902 0.1120241
vn -0.5923689 0.7340032 0.3321721
vn -0.8109593 0.5362924 0.233956
vn -0.4734922 0.6809757 0.5586387
vn -0.29405 0.5568626 0.7768131
vn -0.5837826 0.3844553 0.7151168
vn -0.7265168 0.4975068 0.4739835
vn -0.897364 0.2754489 0.3447691
vn -0.793882 0.1823329 0.5800915
vn -0.9061108 0 0.4230403
vn 0 0.3883016 0.9215323
vn 0.34277 0.2051167 0.9167529
vn -2.555516E-09 0 1
vn 0.6210092 0 0.7838032
vn 0.793882 -0.1823328 0.5800915
vn 0.5837826 -0.3844553 0.7151168
vn 0.34277 -0.2051167 0.9167529
vn -2.545354E-09 -0.3883016 0.9215323
vn 0.29405 -0.5568626 0.7768131
vn 0 -0.6575366 0.7534226
vn 0.897364 -0.2754489 0.3447692
vn 0.9507155 -0.2882718 0.1141905
vn 0.8109593 -0.5362924 0.233956
vn 0.9507155 -0.2882718 -0.1141905
vn 0.897364 -0.2754489 -0.3447692
vn 0.8109593 -0.5362924 -0.233956
vn 0.8417078 -0.5399333 0
vn 0.6663342 -0.7371902 0.1120241
vn 0.6663342 -0.7371902 -0.1120241
vn 0.500387 -0.8658019 0
vn 0.793882 -0.1823328 -0.5800915
vn 0.6210092 0 -0.7838033
vn 0.5837826 -0.3844553 -0.7151168
vn 0.34277 0.2051167 -0.9167529
vn 0 0.3883016 -0.9215323
vn -2.555516E-09 0 -1
vn 0.34277 -0.2051167 -0.9167529
vn 0.29405 -0.5568626 -0.7768131
vn -2.545354E-09 -0.3883016 -0.9215323
vn 0 -0.6575366 -0.7534226
vn -0.29405 0.5568626 -0.7768131
vn -0.4734922 0.6809757 -0.5586387
vn -0.5837826 0.3844553 -0.7151168
vn -0.5923689 0.7340033 -0.3321722
vn -0.6663342 0.7371902 -0.1120241
vn -0.8109593 0.5362924 -0.233956
vn -0.7265168 0.4975068 -0.4739835
vn -0.793882 0.1823329 -0.5800915
vn -0.897364 0.2754489 -0.3447691
vn -0.9061108 0 -0.4230403
vn -0.500387 -0.8658019 0
vn -0.6663342 -0.7371902 0.1120241
vn -0.4225437 -0.8883307 0.1797927
vn -0.8109593 -0.5362924 0.233956
vn -0.5923689 -0.7340032 0.3321721
vn -0.3117302 -0.870909 0.3799233
vn -0.897364 -0.2754489 0.3447692
vn -0.7265168 -0.4975068 0.4739835
vn -0.793882 -0.1823328 0.5800915
vn -0.5837826 -0.3844553 0.7151168
vn -0.4734922 -0.6809757 0.5586387
vn -0.1665924 -0.7960216 0.5818905
vn -0.29405 -0.5568626 0.7768131
vn -0.2687875 -0.9631995 -1.254084E-09
vn -0.144421 -0.9702498 0.194314
vn 0 -1 0
vn 0 -0.9207113 0.3902443
vn 0.1665924 -0.7960216 0.5818905
vn 0.3117302 -0.870909 0.3799233
vn 0.144421 -0.9702498 0.194314
vn 0.2687875 -0.9631995 -2.508167E-09
vn 0.4225437 -0.8883307 0.1797927
vn -0.4225437 -0.8883307 -0.1797927
vn -0.144421 -0.9702498 -0.194314
vn -0.3117302 -0.870909 -0.3799233
vn 0.144421 -0.9702498 -0.194314
vn 0.4225437 -0.8883307 -0.1797927
vn 0.3117302 -0.870909 -0.3799233
vn 0 -0.9207113 -0.3902443
vn -0.1665924 -0.7960216 -0.5818905
vn 0.1665924 -0.7960216 -0.5818905
vn -0.6663342 -0.7371902 -0.1120241
vn -0.5923689 -0.7340032 -0.3321721
vn -0.8109593 -0.5362924 -0.233956
vn -0.4734922 -0.6809757 -0.5586387
vn -0.29405 -0.5568626 -0.7768131
vn -0.5837826 -0.3844553 -0.7151168
vn -0.7265168 -0.4975068 -0.4739835
vn -0.897364 -0.2754489 -0.3447692
vn -0.793882 -0.1823328 -0.5800915
vn -0.8417078 -0.5399333 0
vn -0.9507155 -0.2882717 -0.1141905
vn -0.9755948 2.517572E-09 -0.2195786
vn -1 -2.518254E-09 0
vn -0.9507155 -0.2882718 0.1141905
vn -0.9755948 -2.517572E-09 0.2195786
vn -0.34277 -0.2051167 0.9167529
vn -0.6210092 0 0.7838032
vn -0.34277 0.2051167 0.9167529
vn 0.5923689 -0.7340032 0.3321721
vn 0.4734922 -0.6809757 0.5586387
vn 0.7265168 -0.4975068 0.4739835
vn 0.4734922 -0.6809757 -0.5586387
vn 0.5923689 -0.7340033 -0.3321722
vn 0.7265168 -0.4975068 -0.4739835
vn -0.6210092 0 -0.7838033
vn -0.34277 -0.2051167 -0.9167529
vn -0.34277 0.2051167 -0.9167529
vn -0.9507155 0.2882718 0.1141905
vn -0.9507155 0.2882718 -0.1141905
vn -0.8417078 0.5399333 0

usemtl ProBuilderDefault
f 3/3/3 2/2/2 1/1/1
f 5/6/5 4/5/4 2/4/2
f 3/3/3 5/7/5 2/2/2
f 6/8/6 5/7/5 3/3/3
f 8/10/8 7/9/7 4/5/4
f 10/12/10 9/11/9 7/9/7
f 8/10/8 10/12/10 7/9/7
f 11/15/11 10/14/10 8/13/8
f 5/6/5 8/10/8 4/5/4
f 12/16/12 11/15/11 8/13/8
f 5/17/5 12/16/12 8/13/8
f 6/8/6 12/18/12 5/7/5
f 13/19/13 12/18/12 6/8/6
f 14/20/14 11/15/11 12/16/12
f 13/21/13 14/20/14 12/16/12
f 15/22/15 14/20/14 13/21/13
f 16/23/16 3/3/3 1/1/1
f 17/24/17 6/8/6 3/3/3
f 16/23/16 17/24/17 3/3/3
f 18/25/18 17/24/17 16/23/16
f 19/26/19 13/19/13 6/8/6
f 20/27/20 15/22/15 13/21/13
f 19/26/19 20/28/20 13/19/13
f 21/29/21 20/28/20 19/26/19
f 17/24/17 19/26/19 6/8/6
f 22/30/22 21/29/21 19/26/19
f 17/24/17 22/30/22 19/26/19
f 18/25/18 22/30/22 17/24/17
f 23/31/23 22/30/22 18/25/18
f 24/32/24 21/29/21 22/30/22
f 23/31/23 24/32/24 22/30/22
f 25/33/25 24/32/24 23/31/23
f 26/34/26 16/23/16 1/1/1
f 27/35/27 18/25/18 16/23/16
f 26/34/26 27/35/27 16/23/16
f 28/36/28 27/35/27 26/34/26
f 29/37/29 23/31/23 18/25/18
f 30/38/30 25/33/25 23/31/23
f 29/37/29 30/38/30 23/31/23
f 31/39/31 30/38/30 29/37/29
f 27/35/27 29/37/29 18/25/18
f 32/40/32 31/39/31 29/37/29
f 27/35/27 32/40/32 29/37/29
f 28/36/28 32/40/32 27/35/27
f 33/41/33 32/40/32 28/36/28
f 34/42/34 31/39/31 32/40/32
f 33/41/33 34/42/34 32/40/32
f 35/22/35 34/21/34 33/27/33
f 36/43/36 26/34/26 1/1/1
f 37/44/37 28/36/28 26/34/26
f 36/43/36 37/44/37 26/34/26
f 38/47/38 37/46/37 36/45/36
f 39/48/39 33/41/33 28/36/28
f 40/49/40 35/22/35 33/27/33
f 39/50/39 40/49/40 33/27/33
f 41/51/41 40/49/40 39/50/39
f 37/44/37 39/48/39 28/36/28
f 42/52/42 41/51/41 39/50/39
f 37/53/37 42/52/42 39/50/39
f 38/47/38 42/54/42 37/46/37
f 43/55/43 42/54/42 38/47/38
f 44/56/44 41/51/41 42/52/42
f 43/55/43 44/57/44 42/54/42
f 45/58/45 44/57/44 43/55/43
f 2/2/2 36/43/36 1/1/1
f 46/22/46 38/47/38 36/45/36
f 2/4/2 46/22/46 36/45/36
f 4/5/4 46/22/46 2/4/2
f 47/59/47 43/55/43 38/47/38
f 48/60/48 45/58/45 43/55/43
f 47/59/47 48/60/48 43/55/43
f 49/25/49 48/60/48 47/59/47
f 46/22/46 47/59/47 38/47/38
f 50/61/50 49/25/49 47/59/47
f 46/22/46 50/61/50 47/59/47
f 4/5/4 50/61/50 46/22/46
f 7/9/7 50/61/50 4/5/4
f 51/62/51 49/25/49 50/61/50
f 7/9/7 51/62/51 50/61/50
f 9/11/9 51/62/51 7/9/7
f 52/63/52 24/32/24 25/33/25
f 53/64/53 21/29/21 24/32/24
f 52/63/52 53/64/53 24/32/24
f 54/47/54 53/46/53 52/45/52
f 55/65/55 20/28/20 21/29/21
f 56/49/56 15/22/15 20/27/20
f 55/50/55 56/49/56 20/27/20
f 57/66/57 56/49/56 55/50/55
f 53/64/53 55/65/55 21/29/21
f 58/52/58 57/66/57 55/50/55
f 53/53/53 58/52/58 55/50/55
f 54/47/54 58/54/58 53/46/53
f 59/55/59 58/54/58 54/47/54
f 60/56/60 57/66/57 58/52/58
f 59/55/59 60/57/60 58/54/58
f 61/58/61 60/57/60 59/55/59
f 62/67/62 14/20/14 15/22/15
f 63/68/63 11/15/11 14/20/14
f 62/67/62 63/68/63 14/20/14
f 64/25/64 63/68/63 62/67/62
f 65/33/65 10/14/10 11/15/11
f 66/69/66 9/11/9 10/12/10
f 65/33/65 66/70/66 10/14/10
f 67/71/67 66/70/66 65/33/65
f 63/68/63 65/33/65 11/15/11
f 68/72/68 67/71/67 65/33/65
f 63/68/63 68/72/68 65/33/65
f 64/25/64 68/72/68 63/68/63
f 69/73/69 68/72/68 64/25/64
f 70/74/70 67/71/67 68/72/68
f 69/73/69 70/74/70 68/72/68
f 71/75/71 70/74/70 69/73/69
f 72/76/72 51/62/51 9/11/9
f 73/77/73 49/25/49 51/62/51
f 72/76/72 73/77/73 51/62/51
f 74/78/74 73/77/73 72/76/72
f 75/79/75 48/60/48 49/25/49
f 76/80/76 45/58/45 48/60/48
f 75/79/75 76/80/76 48/60/48
f 77/81/77 76/80/76 75/79/75
f 73/77/73 75/79/75 49/25/49
f 78/75/78 77/81/77 75/79/75
f 73/77/73 78/75/78 75/79/75
f 74/78/74 78/75/78 73/77/73
f 79/82/79 78/75/78 74/78/74
f 80/83/80 77/81/77 78/75/78
f 79/82/79 80/83/80 78/75/78
f 81/33/81 80/84/80 79/63/79
f 82/85/82 44/57/44 45/58/45
f 83/1/83 41/51/41 44/56/44
f 82/86/82 83/1/83 44/56/44
f 84/87/84 83/1/83 82/86/82
f 85/88/85 40/49/40 41/51/41
f 86/67/86 35/22/35 40/49/40
f 85/88/85 86/67/86 40/49/40
f 87/25/87 86/67/86 85/88/85
f 83/1/83 85/88/85 41/51/41
f 88/89/88 87/25/87 85/88/85
f 83/1/83 88/89/88 85/88/85
f 84/87/84 88/89/88 83/1/83
f 89/90/89 88/89/88 84/87/84
f 90/73/90 87/25/87 88/89/88
f 89/90/89 90/73/90 88/89/88
f 91/75/91 90/73/90 89/90/89
f 92/20/92 34/21/34 35/22/35
f 93/91/93 31/39/31 34/42/34
f 92/20/92 93/16/93 34/21/34
f 94/15/94 93/16/93 92/20/92
f 95/92/95 30/38/30 31/39/31
f 96/84/96 25/33/25 30/38/30
f 95/92/95 96/84/96 30/38/30
f 97/5/97 96/4/96 95/6/95
f 93/91/93 95/92/95 31/39/31
f 98/10/98 97/5/97 95/6/95
f 93/16/93 98/13/98 95/17/95
f 94/15/94 98/13/98 93/16/93
f 99/14/99 98/13/98 94/15/94
f 100/9/100 97/5/97 98/10/98
f 99/12/99 100/9/100 98/10/98
f 101/11/101 100/9/100 99/12/99
f 104/3/104 103/2/103 102/1/102
f 106/93/106 105/81/105 103/83/103
f 104/3/104 106/7/106 103/2/103
f 107/8/107 106/7/106 104/3/104
f 109/94/109 108/80/108 105/81/105
f 110/85/110 61/58/61 108/80/108
f 109/94/109 110/85/110 108/80/108
f 111/96/111 110/86/110 109/95/109
f 106/93/106 109/94/109 105/81/105
f 112/97/112 111/96/111 109/95/109
f 106/98/106 112/97/112 109/95/109
f 107/8/107 112/18/112 106/7/106
f 113/19/113 112/18/112 107/8/107
f 114/90/114 111/96/111 112/97/112
f 113/99/113 114/90/114 112/97/112
f 71/75/71 114/90/114 113/99/113
f 115/23/115 104/3/104 102/1/102
f 116/24/116 107/8/107 104/3/104
f 115/23/115 116/24/116 104/3/104
f 117/25/117 116/24/116 115/23/115
f 118/26/118 113/19/113 107/8/107
f 119/100/119 71/75/71 113/99/113
f 118/26/118 119/28/119 113/19/113
f 120/29/120 119/28/119 118/26/118
f 116/24/116 118/26/118 107/8/107
f 121/30/121 120/29/120 118/26/118
f 116/24/116 121/30/121 118/26/118
f 117/25/117 121/30/121 116/24/116
f 122/31/122 121/30/121 117/25/117
f 123/32/123 120/29/120 121/30/121
f 122/31/122 123/32/123 121/30/121
f 81/33/81 123/32/123 122/31/122
f 124/34/124 115/23/115 102/1/102
f 125/35/125 117/25/117 115/23/115
f 124/34/124 125/35/125 115/23/115
f 126/36/126 125/35/125 124/34/124
f 127/37/127 122/31/122 117/25/117
f 128/38/128 81/33/81 122/31/122
f 127/37/127 128/38/128 122/31/122
f 129/39/129 128/38/128 127/37/127
f 125/35/125 127/37/127 117/25/117
f 130/40/130 129/39/129 127/37/127
f 125/35/125 130/40/130 127/37/127
f 126/36/126 130/40/130 125/35/125
f 131/41/131 130/40/130 126/36/126
f 132/42/132 129/39/129 130/40/130
f 131/41/131 132/42/132 130/40/130
f 91/75/91 132/99/132 131/100/131
f 133/43/133 124/34/124 102/1/102
f 134/44/134 126/36/126 124/34/124
f 133/43/133 134/44/134 124/34/124
f 135/78/135 134/101/134 133/82/133
f 136/48/136 131/41/131 126/36/126
f 137/74/137 91/75/91 131/100/131
f 136/102/136 137/74/137 131/100/131
f 138/71/138 137/74/137 136/102/136
f 134/44/134 136/48/136 126/36/126
f 139/103/139 138/71/138 136/102/136
f 134/104/134 139/103/139 136/102/136
f 135/78/135 139/105/139 134/101/134
f 140/76/140 139/105/139 135/78/135
f 141/70/141 138/71/138 139/103/139
f 140/76/140 141/69/141 139/105/139
f 101/11/101 141/69/141 140/76/140
f 103/2/103 133/43/133 102/1/102
f 142/75/142 135/78/135 133/82/133
f 103/83/103 142/75/142 133/82/133
f 105/81/105 142/75/142 103/83/103
f 143/77/143 140/76/140 135/78/135
f 144/62/144 101/11/101 140/76/140
f 143/77/143 144/62/144 140/76/140
f 145/25/145 144/62/144 143/77/143
f 142/75/142 143/77/143 135/78/135
f 146/79/146 145/25/145 143/77/143
f 142/75/142 146/79/146 143/77/143
f 105/81/105 146/79/146 142/75/142
f 108/80/108 146/79/146 105/81/105
f 147/60/147 145/25/145 146/79/146
f 108/80/108 147/60/147 146/79/146
f 61/58/61 147/60/147 108/80/108
f 69/73/69 114/90/114 71/75/71
f 148/89/148 111/96/111 114/90/114
f 69/73/69 148/89/148 114/90/114
f 64/25/64 148/89/148 69/73/69
f 149/1/149 110/86/110 111/96/111
f 60/57/60 61/58/61 110/85/110
f 149/1/149 60/56/60 110/86/110
f 57/66/57 60/56/60 149/1/149
f 148/89/148 149/1/149 111/96/111
f 150/88/150 57/66/57 149/1/149
f 148/89/148 150/88/150 149/1/149
f 64/25/64 150/88/150 148/89/148
f 62/67/62 150/88/150 64/25/64
f 56/49/56 57/66/57 150/88/150
f 62/67/62 56/49/56 150/88/150
f 15/22/15 56/49/56 62/67/62
f 79/63/79 123/32/123 81/33/81
f 151/64/151 120/29/120 123/32/123
f 79/63/79 151/64/151 123/32/123
f 74/78/74 151/101/151 79/82/79
f 152/65/152 119/28/119 120/29/120
f 70/74/70 71/75/71 119/100/119
f 152/102/152 70/74/70 119/100/119
f 67/71/67 70/74/70 152/102/152
f 151/64/151 152/65/152 120/29/120
f 153/103/153 67/71/67 152/102/152
f 151/104/151 153/103/153 152/102/152
f 74/78/74 153/105/153 151/101/151
f 72/76/72 153/105/153 74/78/74
f 66/70/66 67/71/67 153/103/153
f 72/76/72 66/69/66 153/105/153
f 9/11/9 66/69/66 72/76/72
f 89/90/89 132/99/132 91/75/91
f 154/91/154 129/39/129 132/42/132
f 89/90/89 154/97/154 132/99/132
f 84/87/84 154/97/154 89/90/89
f 155/92/155 128/38/128 129/39/129
f 80/84/80 81/33/81 128/38/128
f 155/92/155 80/84/80 128/38/128
f 77/81/77 80/83/80 155/93/155
f 154/91/154 155/92/155 129/39/129
f 156/94/156 77/81/77 155/93/155
f 154/97/154 156/95/156 155/98/155
f 84/87/84 156/95/156 154/97/154
f 82/86/82 156/95/156 84/87/84
f 76/80/76 77/81/77 156/94/156
f 82/85/82 76/80/76 156/94/156
f 45/58/45 76/80/76 82/85/82
f 99/12/99 141/69/141 101/11/101
f 157/33/157 138/71/138 141/70/141
f 99/14/99 157/33/157 141/70/141
f 94/15/94 157/33/157 99/14/99
f 158/72/158 137/74/137 138/71/138
f 90/73/90 91/75/91 137/74/137
f 158/72/158 90/73/90 137/74/137
f 87/25/87 90/73/90 158/72/158
f 157/33/157 158/72/158 138/71/138
f 159/68/159 87/25/87 158/72/158
f 157/33/157 159/68/159 158/72/158
f 94/15/94 159/68/159 157/33/157
f 92/20/92 159/68/159 94/15/94
f 86/67/86 87/25/87 159/68/159
f 92/20/92 86/67/86 159/68/159
f 35/22/35 86/67/86 92/20/92
f 59/55/59 147/60/147 61/58/61
f 160/59/160 145/25/145 147/60/147
f 59/55/59 160/59/160 147/60/147
f 54/47/54 160/59/160 59/55/59
f 161/61/161 144/62/144 145/25/145
f 100/9/100 101/11/101 144/62/144
f 161/61/161 100/9/100 144/62/144
f 97/5/97 100/9/100 161/61/161
f 160/59/160 161/61/161 145/25/145
f 162/22/162 97/5/97 161/61/161
f 160/59/160 162/22/162 161/61/161
f 54/47/54 162/22/162 160/59/160
f 52/45/52 162/22/162 54/47/54
f 96/4/96 97/5/97 162/22/162
f 52/45/52 96/4/96 162/22/162
f 25/33/25 96/84/96 52/63/52

